solid generated
  facet normal 0.00 -1.00 0.00
    outer loop
     vertex 300.00 -269.64 30.00
     vertex 0.00 -269.64 30.00
     vertex 0.00 -269.64 0.00
    endloop
  endfacet
  facet normal 0.00 -1.00 0.00
    outer loop
     vertex 300.00 -269.64 30.00
     vertex 0.00 -269.64 0.00
     vertex 300.00 -269.64 0.00
    endloop
  endfacet
  facet normal 0.00 0.00 -1.00
    outer loop
     vertex 0.00 -231.12 0.00
     vertex 300.00 -231.12 0.00
     vertex 0.00 -269.64 0.00
    endloop
  endfacet
  facet normal 0.00 0.00 1.00
    outer loop
     vertex 300.00 -231.12 0.00
     vertex 0.00 -269.64 0.00
     vertex 300.00 -269.64 0.00
    endloop
  endfacet
  facet normal 0.00 -0.76 -0.65
    outer loop
     vertex 300.00 -231.12 0.00
     vertex 0.00 -243.96 15.00
     vertex 0.00 -231.12 0.00
    endloop
  endfacet
  facet normal 0.00 -0.76 -0.65
    outer loop
     vertex 300.00 -231.12 0.00
     vertex 300.00 -243.96 15.00
     vertex 0.00 -243.96 15.00
    endloop
  endfacet
  facet normal 0.00 0.00 -1.00
    outer loop
     vertex 0.00 -256.80 15.00
     vertex 0.00 -243.96 15.00
     vertex 300.00 -256.80 15.00
    endloop
  endfacet
  facet normal 0.00 0.00 1.00
    outer loop
     vertex 0.00 -243.96 15.00
     vertex 300.00 -256.80 15.00
     vertex 300.00 -243.96 15.00
    endloop
  endfacet
  facet normal 0.00 -0.76 -0.65
    outer loop
     vertex 300.00 -256.80 15.00
     vertex 0.00 -269.64 30.00
     vertex 0.00 -256.80 15.00
    endloop
  endfacet
  facet normal 0.00 -0.76 -0.65
    outer loop
     vertex 300.00 -256.80 15.00
     vertex 300.00 -269.64 30.00
     vertex 0.00 -269.64 30.00
    endloop
  endfacet
  facet normal 1.00 0.00 0.00
    outer loop
     vertex 300.00 -269.64 30.00
     vertex 300.00 -269.64 15.00
     vertex 300.00 -256.80 15.00
    endloop
  endfacet
  facet normal 1.00 0.00 0.00
    outer loop
     vertex 0.00 -269.64 30.00
     vertex 0.00 -269.64 15.00
     vertex 0.00 -256.80 15.00
    endloop
  endfacet
  facet normal 1.00 0.00 0.00
    outer loop
     vertex 300.00 -243.96 15.00
     vertex 300.00 -243.96 0.00
     vertex 300.00 -231.12 0.00
    endloop
  endfacet
  facet normal 1.00 0.00 0.00
    outer loop
     vertex 0.00 -243.96 15.00
     vertex 0.00 -243.96 0.00
     vertex 0.00 -231.12 0.00
    endloop
  endfacet
  facet normal -1.00 0.00 0.00
    outer loop
     vertex 300.00 -243.96 0.00
     vertex 300.00 -269.64 15.00
     vertex 300.00 -243.96 15.00
    endloop
  endfacet
  facet normal -1.00 0.00 0.00
    outer loop
     vertex 300.00 -243.96 0.00
     vertex 300.00 -269.64 0.00
     vertex 300.00 -269.64 15.00
    endloop
  endfacet
  facet normal 1.00 0.00 0.00
    outer loop
     vertex 0.00 -243.96 15.00
     vertex 0.00 -269.64 15.00
     vertex 0.00 -269.64 0.00
    endloop
  endfacet
  facet normal 1.00 0.00 0.00
    outer loop
     vertex 0.00 -243.96 15.00
     vertex 0.00 -269.64 0.00
     vertex 0.00 -243.96 0.00
    endloop
  endfacet
endsolid generated
