solid generated
  facet normal -1.00 0.00 0.00
    outer loop
     vertex 0.00 0.00 0.00
     vertex 0.00 0.00 300.00
     vertex 0.00 30.00 300.00
    endloop
  endfacet
  facet normal -1.00 0.00 0.00
    outer loop
     vertex 0.00 0.00 0.00
     vertex 0.00 30.00 300.00
     vertex 0.00 30.00 0.00
    endloop
  endfacet
  facet normal 0.00 1.00 0.00
    outer loop
     vertex 0.00 0.00 0.00
     vertex 0.00 0.00 300.00
     vertex 30.00 0.00 0.00
    endloop
  endfacet
  facet normal 0.00 -1.00 0.00
    outer loop
     vertex 0.00 0.00 300.00
     vertex 30.00 0.00 0.00
     vertex 30.00 0.00 300.00
    endloop
  endfacet
  facet normal -0.30 0.95 0.00
    outer loop
     vertex 30.00 0.00 0.00
     vertex 30.00 0.00 300.00
     vertex 285.00 80.38 300.00
    endloop
  endfacet
  facet normal -0.30 0.95 0.00
    outer loop
     vertex 30.00 0.00 0.00
     vertex 285.00 80.38 300.00
     vertex 285.00 80.38 0.00
    endloop
  endfacet
  facet normal -1.00 0.00 0.00
    outer loop
     vertex 285.00 80.38 0.00
     vertex 285.00 80.38 300.00
     vertex 285.00 95.38 0.00
    endloop
  endfacet
  facet normal 1.00 0.00 0.00
    outer loop
     vertex 285.00 80.38 300.00
     vertex 285.00 95.38 0.00
     vertex 285.00 95.38 300.00
    endloop
  endfacet
  facet normal -0.26 0.97 0.00
    outer loop
     vertex 285.00 95.38 0.00
     vertex 285.00 95.38 300.00
     vertex 300.00 99.40 0.00
    endloop
  endfacet
  facet normal 0.26 -0.97 0.00
    outer loop
     vertex 285.00 95.38 300.00
     vertex 300.00 99.40 0.00
     vertex 300.00 99.40 300.00
    endloop
  endfacet
  facet normal -1.00 0.00 0.00
    outer loop
     vertex 300.00 99.40 0.00
     vertex 300.00 99.40 300.00
     vertex 300.00 114.40 0.00
    endloop
  endfacet
  facet normal 1.00 0.00 0.00
    outer loop
     vertex 300.00 99.40 300.00
     vertex 300.00 114.40 0.00
     vertex 300.00 114.40 300.00
    endloop
  endfacet
  facet normal 0.27 -0.96 0.00
    outer loop
     vertex 300.00 114.40 0.00
     vertex 300.00 114.40 300.00
     vertex 0.00 30.00 300.00
    endloop
  endfacet
  facet normal 0.27 -0.96 0.00
    outer loop
     vertex 0.00 30.00 300.00
     vertex 0.00 30.00 0.00
     vertex 300.00 114.40 0.00
    endloop
  endfacet
endsolid generated
