solid generated
  facet normal 0.00 -1.00 0.00
    outer loop
     vertex 0.00 0.00 0.00
     vertex 30.00 0.00 0.00
     vertex 0.00 0.00 240.00
    endloop
  endfacet
  facet normal 0.00 1.00 0.00
    outer loop
     vertex 0.00 0.00 240.00
     vertex 30.00 0.00 240.00
     vertex 30.00 0.00 0.00
    endloop
  endfacet
  facet normal 0.00 -0.84 0.54
    outer loop
     vertex 0.00 0.00 0.00
     vertex 30.00 0.00 0.00
     vertex 0.00 155.61 240.00
    endloop
  endfacet
  facet normal 0.00 0.84 -0.54
    outer loop
     vertex 30.00 0.00 0.00
     vertex 0.00 155.61 240.00
     vertex 30.00 155.61 240.00
    endloop
  endfacet
  facet normal 0.00 0.00 -1.00
    outer loop
     vertex 0.00 155.61 240.00
     vertex 30.00 155.61 240.00
     vertex 0.00 0.00 240.00
    endloop
  endfacet
  facet normal 0.00 0.00 1.00
    outer loop
     vertex 0.00 0.00 240.00
     vertex 30.00 0.00 240.00
     vertex 30.00 155.61 240.00
    endloop
  endfacet
  facet normal -1.00 0.00 0.00
    outer loop
     vertex 0.00 0.00 0.00
     vertex 0.00 0.00 240.00
     vertex 0.00 155.61 240.00
    endloop
  endfacet
  facet normal -1.00 0.00 0.00
    outer loop
     vertex 30.00 0.00 0.00
     vertex 30.00 0.00 240.00
     vertex 30.00 155.61 240.00
    endloop
  endfacet
endsolid generated
