solid generated
  facet normal 0.00 0.00 1.00
    outer loop
     vertex 0.00 0.00 0.00
     vertex 300.00 0.00 0.00
     vertex 300.00 224.51 0.00
    endloop
  endfacet
  facet normal 0.00 0.00 1.00
    outer loop
     vertex 300.00 224.51 0.00
     vertex 0.00 224.51 0.00
     vertex 0.00 0.00 0.00
    endloop
  endfacet
  facet normal 0.00 0.00 -1.00
    outer loop
     vertex 0.00 0.00 30.00
     vertex 0.00 194.51 30.00
     vertex 300.00 0.00 30.00
    endloop
  endfacet
  facet normal 0.00 0.00 1.00
    outer loop
     vertex 300.00 0.00 30.00
     vertex 300.00 194.51 30.00
     vertex 0.00 194.51 30.00
    endloop
  endfacet
  facet normal -1.00 0.00 0.00
    outer loop
     vertex 0.00 0.00 0.00
     vertex 0.00 224.51 30.00
     vertex 0.00 224.51 0.00
    endloop
  endfacet
  facet normal -1.00 0.00 0.00
    outer loop
     vertex 0.00 0.00 0.00
     vertex 0.00 0.00 30.00
     vertex 0.00 224.51 30.00
    endloop
  endfacet
  facet normal -1.00 0.00 0.00
    outer loop
     vertex 300.00 0.00 0.00
     vertex 300.00 0.00 30.00
     vertex 300.00 224.51 30.00
    endloop
  endfacet
  facet normal -1.00 0.00 0.00
    outer loop
     vertex 300.00 224.51 30.00
     vertex 300.00 224.51 0.00
     vertex 300.00 0.00 0.00
    endloop
  endfacet
  facet normal 0.00 -1.00 0.00
    outer loop
     vertex 0.00 0.00 0.00
     vertex 300.00 0.00 0.00
     vertex 300.00 0.00 30.00
    endloop
  endfacet
  facet normal 0.00 1.00 0.00
    outer loop
     vertex 0.00 0.00 0.00
     vertex 0.00 0.00 30.00
     vertex 300.00 0.00 30.00
    endloop
  endfacet
  facet normal -1.00 0.00 0.00
    outer loop
     vertex 0.00 209.51 15.00
     vertex 0.00 209.51 30.00
     vertex 0.00 224.51 30.00
    endloop
  endfacet
  facet normal 1.00 0.00 0.00
    outer loop
     vertex 0.00 224.51 30.00
     vertex 0.00 194.51 15.00
     vertex 0.00 209.51 15.00
    endloop
  endfacet
  facet normal 1.00 0.00 0.00
    outer loop
     vertex 0.00 224.51 15.00
     vertex 0.00 209.51 15.00
     vertex 0.00 224.51 0.00
    endloop
  endfacet
  facet normal -1.00 0.00 0.00
    outer loop
     vertex 0.00 224.51 30.00
     vertex 0.00 224.51 15.00
     vertex 0.00 209.51 15.00
    endloop
  endfacet
  facet normal 1.00 0.00 0.00
    outer loop
     vertex 0.00 224.51 30.00
     vertex 0.00 209.51 30.00
     vertex 0.00 209.51 15.00
    endloop
  endfacet
  facet normal 1.00 0.00 0.00
    outer loop
     vertex 300.00 224.51 0.00
     vertex 300.00 224.51 15.00
     vertex 300.00 209.51 15.00
    endloop
  endfacet
  facet normal -1.00 0.00 0.00
    outer loop
     vertex 300.00 224.51 15.00
     vertex 300.00 209.51 30.00
     vertex 300.00 224.51 30.00
    endloop
  endfacet
  facet normal 1.00 0.00 0.00
    outer loop
     vertex 300.00 209.51 15.00
     vertex 300.00 224.51 15.00
     vertex 300.00 209.51 30.00
    endloop
  endfacet
  facet normal 1.00 0.00 0.00
    outer loop
     vertex 0.00 209.51 15.00
     vertex 0.00 209.51 30.00
     vertex 0.00 194.51 15.00
    endloop
  endfacet
  facet normal 1.00 0.00 0.00
    outer loop
     vertex 0.00 209.51 30.00
     vertex 0.00 194.51 15.00
     vertex 0.00 224.51 30.00
    endloop
  endfacet
  facet normal -1.00 0.00 0.00
    outer loop
     vertex 300.00 209.51 15.00
     vertex 300.00 209.51 30.00
     vertex 300.00 224.51 30.00
    endloop
  endfacet
  facet normal -1.00 0.00 0.00
    outer loop
     vertex 300.00 209.51 15.00
     vertex 300.00 194.51 15.00
     vertex 300.00 224.51 30.00
    endloop
  endfacet
  facet normal -1.00 0.00 0.00
    outer loop
     vertex 0.00 224.51 30.00
     vertex 0.00 194.51 15.00
     vertex 0.00 194.51 30.00
    endloop
  endfacet
  facet normal -1.00 0.00 0.00
    outer loop
     vertex 300.00 194.51 30.00
     vertex 300.00 224.51 30.00
     vertex 300.00 194.51 15.00
    endloop
  endfacet
  facet normal 0.00 0.00 1.00
    outer loop
     vertex 0.00 209.51 15.00
     vertex 0.00 194.51 15.00
     vertex 300.00 194.51 15.00
    endloop
  endfacet
  facet normal 0.00 0.00 -1.00
    outer loop
     vertex 0.00 209.51 15.00
     vertex 300.00 209.51 15.00
     vertex 300.00 194.51 15.00
    endloop
  endfacet
  facet normal 0.00 1.00 0.00
    outer loop
     vertex 0.00 194.51 30.00
     vertex 300.00 194.51 30.00
     vertex 0.00 194.51 15.00
    endloop
  endfacet
  facet normal 0.00 -1.00 0.00
    outer loop
     vertex 0.00 194.51 15.00
     vertex 300.00 194.51 15.00
     vertex 300.00 194.51 30.00
    endloop
  endfacet
  facet normal 0.00 0.71 0.71
    outer loop
     vertex 0.00 209.51 15.00
     vertex 300.00 209.51 15.00
     vertex 0.00 224.51 0.00
    endloop
  endfacet
  facet normal 0.00 -0.71 -0.71
    outer loop
     vertex 0.00 224.51 0.00
     vertex 300.00 224.51 0.00
     vertex 300.00 209.51 15.00
    endloop
  endfacet
endsolid generated
